<svg xmlns="http://www.w3.org/2000/svg" xmlns:xlink="http://www.w3.org/1999/xlink" width="500" zoomAndPan="magnify" viewBox="0 0 375 374.999991" height="500" preserveAspectRatio="xMidYMid meet" version="1.0"><defs><g/><clipPath id="b8d87f6bca"><path d="M 375 0 L 0 0 L 0 288.28125 L 72.65625 288.28125 L 72.65625 375 L 213.867188 288.28125 L 375 288.28125 Z M 375 0 " clip-rule="nonzero"/></clipPath></defs><g clip-path="url(#b8d87f6bca)"><rect x="-37.5" width="450" fill="#ffffff" y="-37.499999" height="449.999989" fill-opacity="1"/><path stroke-linecap="butt" transform="matrix(0.75, 0, 0, 0.75, 0.0000045, 0)" fill="none" stroke-linejoin="miter" d="M 499.999995 0 L -0.000006 0 L -0.000006 384.375001 L 96.874994 384.375001 L 96.874994 500.000001 L 285.156244 384.375001 L 499.999995 384.375001 Z M 499.999995 0 " stroke="#000000" stroke-width="48" stroke-opacity="1" stroke-miterlimit="4"/></g><g fill="#000000" fill-opacity="1"><g transform="translate(54.774507, 259.953638)"><g><path d="M 126.921875 -234.734375 C 209.035156 -234.734375 250.09375 -195.613281 250.09375 -117.375 C 250.09375 -39.125 209.035156 0 126.921875 0 L 25.25 0 L 25.25 -234.734375 Z M 100.65625 -56.296875 L 125.5625 -56.296875 C 157.175781 -56.296875 172.984375 -73.242188 172.984375 -107.140625 L 172.984375 -127.609375 C 172.984375 -161.492188 157.175781 -178.4375 125.5625 -178.4375 L 100.65625 -178.4375 Z M 100.65625 -56.296875 "/></g></g></g></svg>